<svg xmlns="http://www.w3.org/2000/svg" xmlns:xlink="http://www.w3.org/1999/xlink" width="130" height="104" viewBox="0 0 130 104">
  <defs>
    <clipPath id="clip-Монтажная_область_2">
      <rect width="130" height="104"/>
    </clipPath>
  </defs>
  <g id="Монтажная_область_2" data-name="Монтажная область – 2" clip-path="url(#clip-Монтажная_область_2)">
    <g id="Сгруппировать_1597" data-name="Сгруппировать 1597" transform="translate(-1400.434 -297.165)">
      <g id="Сгруппировать_1" data-name="Сгруппировать 1" transform="translate(1429.484 297.165)">
        <path id="Контур_1" data-name="Контур 1" d="M1444.571,316.922l29.6,19.757,29.6-19.757-29.6-19.757Z" transform="translate(-1444.57 -297.165)" fill="#ffc400"/>
        <path id="Контур_2" data-name="Контур 2" d="M1520.973,332.922,1508.13,321.13v5.551l-33.955,22.629-29.6-19.73v29.6l29.6,19.73,33.955-22.629v5.538Z" transform="translate(-1444.571 -305.357)" fill="#616668"/>
      </g>
      <path id="Контур_3" data-name="Контур 3" d="M1400.434,438.2V424.95a3.973,3.973,0,0,1,1.366-3.236,5.262,5.262,0,0,1,3.483-1.135h1.565a5.331,5.331,0,0,1,3.49,1.135,3.943,3.943,0,0,1,1.388,3.236V427.5a.7.7,0,0,1-.207.514.716.716,0,0,1-.529.207h-1.779a.713.713,0,0,1-.5-.207.671.671,0,0,1-.222-.514v-1.887a2.026,2.026,0,0,0-.522-1.472,1.859,1.859,0,0,0-1.4-.537h-.981a1.858,1.858,0,0,0-1.4.537,2.021,2.021,0,0,0-.522,1.472v11.935a2.021,2.021,0,0,0,.522,1.473,1.856,1.856,0,0,0,1.4.537h.981a1.87,1.87,0,0,0,1.4-.53,2.018,2.018,0,0,0,.522-1.48V435.35a.683.683,0,0,1,.215-.513.7.7,0,0,1,.506-.207h1.779a.742.742,0,0,1,.522.2.68.68,0,0,1,.215.521V438.2a3.941,3.941,0,0,1-1.388,3.236,5.328,5.328,0,0,1-3.49,1.135h-1.565a5.269,5.269,0,0,1-3.475-1.135A3.963,3.963,0,0,1,1400.434,438.2Zm12.969,0v-6.781a4.309,4.309,0,0,1,1.228-3.16,4.062,4.062,0,0,1,3.007-1.243H1420a4.08,4.08,0,0,1,3.022,1.243,4.312,4.312,0,0,1,1.227,3.16V438.2a4.259,4.259,0,0,1-1.227,3.144,4.1,4.1,0,0,1-3.022,1.227h-2.362a4.08,4.08,0,0,1-3.015-1.227A4.271,4.271,0,0,1,1413.4,438.2Zm3.145-.307a2.058,2.058,0,0,0,.468,1.427,1.728,1.728,0,0,0,1.358.521h.905a1.733,1.733,0,0,0,1.35-.521,2.037,2.037,0,0,0,.475-1.427v-6.2a2.038,2.038,0,0,0-.475-1.426,1.735,1.735,0,0,0-1.35-.522h-.905a1.734,1.734,0,0,0-1.35.522,2.035,2.035,0,0,0-.476,1.426Zm9.489.338V427.742a.709.709,0,0,1,.721-.721h1.7a.709.709,0,0,1,.721.721V437.9a2.057,2.057,0,0,0,.468,1.427,1.725,1.725,0,0,0,1.357.521h.629a1.745,1.745,0,0,0,1.335-.521,2,2,0,0,0,.491-1.427V427.742a.712.712,0,0,1,.2-.513.683.683,0,0,1,.519-.207h1.711a.69.69,0,0,1,.511.207.7.7,0,0,1,.207.513v14.114a.713.713,0,0,1-.2.513.685.685,0,0,1-.519.207h-1.711a.689.689,0,0,1-.511-.207.7.7,0,0,1-.206-.513v-.507a3.708,3.708,0,0,1-2.992,1.227,4.451,4.451,0,0,1-3.222-1.166A4.2,4.2,0,0,1,1426.036,438.235Zm12.59,3.621V427.742a.708.708,0,0,1,.721-.721h1.672a.709.709,0,0,1,.721.721v1.043a3.428,3.428,0,0,1,3.206-1.764h.813a.677.677,0,0,1,.514.222.715.715,0,0,1,.207.5V429.6a.714.714,0,0,1-.2.515.7.7,0,0,1-.522.207h-1.135a2.515,2.515,0,0,0-2.854,2.838v8.7a.708.708,0,0,1-.722.721h-1.7a.708.708,0,0,1-.721-.721Zm9.252,0V427.742a.708.708,0,0,1,.721-.721h1.672a.709.709,0,0,1,.722.721v1.043a3.428,3.428,0,0,1,3.206-1.764h.813a.677.677,0,0,1,.514.222.715.715,0,0,1,.207.5V429.6a.713.713,0,0,1-.2.515.7.7,0,0,1-.522.207h-1.135a2.515,2.515,0,0,0-2.854,2.838v8.7a.707.707,0,0,1-.721.721h-1.7a.708.708,0,0,1-.721-.721Zm9.1-17.872v-2.516q0-.721,1.012-.721h1.442q1.012,0,1,.721v2.516q0,.722-1,.721h-1.442Q1456.978,424.7,1456.979,423.984Zm.153,17.872V427.742a.708.708,0,0,1,.721-.721h1.7a.709.709,0,0,1,.721.721v14.114a.708.708,0,0,1-.721.721h-1.7a.707.707,0,0,1-.721-.721Zm4.89-3.682v-6.75a4.308,4.308,0,0,1,1.228-3.16,4.06,4.06,0,0,1,3.007-1.243h2.362a4.084,4.084,0,0,1,3.023,1.243,4.312,4.312,0,0,1,1.226,3.16v3.3a.7.7,0,0,1-.207.514.717.717,0,0,1-.529.207h-6.964V437.9a2.058,2.058,0,0,0,.468,1.427,1.727,1.727,0,0,0,1.358.521h.905a1.734,1.734,0,0,0,1.35-.521,2.038,2.038,0,0,0,.475-1.427v-.215a.712.712,0,0,1,.215-.521.692.692,0,0,1,.507-.215h1.687a.726.726,0,0,1,.522.207.7.7,0,0,1,.215.529v.491a4.032,4.032,0,0,1-1.342,3.283,5.292,5.292,0,0,1-3.505,1.12h-1.227a5.14,5.14,0,0,1-3.467-1.12A4.088,4.088,0,0,1,1462.022,438.173Zm3.145-5.308h4.556v-1.127a2.107,2.107,0,0,0-.475-1.455,1.718,1.718,0,0,0-1.35-.532h-.905a1.716,1.716,0,0,0-1.35.532,2.1,2.1,0,0,0-.476,1.455Zm9.459,8.99V427.742a.708.708,0,0,1,.721-.721h1.673a.709.709,0,0,1,.721.721v1.043a3.428,3.428,0,0,1,3.206-1.764h.813a.676.676,0,0,1,.514.222.715.715,0,0,1,.208.5V429.6a.713.713,0,0,1-.2.515.7.7,0,0,1-.522.207h-1.135a2.515,2.515,0,0,0-2.853,2.838v8.7a.708.708,0,0,1-.721.721h-1.7a.707.707,0,0,1-.721-.721Zm9.218-14.206v-2.7a3.981,3.981,0,0,1,1.365-3.221,5.147,5.147,0,0,1,3.436-1.151h1.381a5.238,5.238,0,0,1,3.459,1.151,3.953,3.953,0,0,1,1.389,3.221v1.826a6.228,6.228,0,0,1-.331,2.171,6.747,6.747,0,0,1-1.281,1.971l-5.123,5.814a3.219,3.219,0,0,0-.936,2.071v.752h6.919a.7.7,0,0,1,.514.207.664.664,0,0,1,.208.483v1.611a.708.708,0,0,1-.721.721h-9.5a.71.71,0,0,1-.5-.207.67.67,0,0,1-.222-.513v-2.133a9,9,0,0,1,.329-2.693,6.347,6.347,0,0,1,1.373-2.186l5.186-5.845a2.99,2.99,0,0,0,.843-2.04v-1.351a2.037,2.037,0,0,0-.522-1.457,1.829,1.829,0,0,0-1.4-.552H1489q-1.917,0-1.917,2.009v2.04a.673.673,0,0,1-.223.514.715.715,0,0,1-.5.207h-1.8a.707.707,0,0,1-.721-.721Zm11.221,8.361v-1.734a1.4,1.4,0,0,1,.154-.6l5.906-12.441a1,1,0,0,1,.951-.66h2.608a.688.688,0,0,1,.5.224.713.713,0,0,1,.222.517V434h1.6a.7.7,0,0,1,.514.208.67.67,0,0,1,.207.49v1.335a.675.675,0,0,1-.2.5.706.706,0,0,1-.522.2h-1.6v5.124a.707.707,0,0,1-.721.721h-1.7a.708.708,0,0,1-.721-.721v-5.124h-6.5Q1495.065,436.731,1495.065,436.011ZM1498,434h4.264v-9.173Zm10.566,7.885v-3.114a.669.669,0,0,1,.2-.484.652.652,0,0,1,.479-.207h2.439a.714.714,0,0,1,.682.69v3.114a.716.716,0,0,1-.682.69h-2.439a.715.715,0,0,1-.683-.69Zm4.206-12.824v-1.32a.707.707,0,0,1,.721-.721h1.534V424.7a3.942,3.942,0,0,1,1.136-2.911,4.244,4.244,0,0,1,3.145-1.137h1.794a.684.684,0,0,1,.514.217.7.7,0,0,1,.207.5v1.313a.671.671,0,0,1-.207.5.709.709,0,0,1-.514.2h-1.227a1.485,1.485,0,0,0-1.7,1.657v1.979h2.3a.707.707,0,0,1,.721.721v1.32a.662.662,0,0,1-.207.482.7.7,0,0,1-.514.207h-2.3v12.1a.71.71,0,0,1-.2.513.689.689,0,0,1-.522.207h-1.7a.708.708,0,0,1-.721-.721v-12.1h-1.534a.7.7,0,0,1-.514-.207A.662.662,0,0,1,1512.768,429.061Zm9.812,12.794V427.742a.709.709,0,0,1,.721-.721h1.672a.707.707,0,0,1,.721.721v1.043a3.43,3.43,0,0,1,3.206-1.764h.814a.675.675,0,0,1,.513.222.715.715,0,0,1,.207.5V429.6a.712.712,0,0,1-.2.515.7.7,0,0,1-.521.207h-1.136a2.515,2.515,0,0,0-2.853,2.838v8.7a.708.708,0,0,1-.722.721h-1.7a.709.709,0,0,1-.721-.721Z" transform="translate(0 -42.184)" fill="#616668"/>
    </g>
  </g>
</svg>
